# xmcd CD database file
#
# Track frame offsets:
#	150
#	16135
#	40290
#
# Disc length: 783 seconds
#
# Revision: 2
# Processed by: cddbd v1.5.1PL0 Copyright (c) Steve Scherf et al.
# Submitted via: CDex 1.51
#
DISCID=19030d03
DTITLE=FATBOY SLIM - gangstar trippin
DYEAR=1900
DGENRE=Techno
TTITLE0=gangster trippin(radio edit)
TTITLE1=gangster tirppin(full version)
TTITLE2=jack it up(dj delite)
EXTD=
EXTT0=
EXTT1=
EXTT2=
PLAYORDER=
